<?xml version="1.0" encoding="iso-8859-1"?>
<!-- Generator: Adobe Illustrator 19.0.0, SVG Export Plug-In . SVG Version: 6.00 Build 0)  -->
<svg xmlns="http://www.w3.org/2000/svg" xmlns:xlink="http://www.w3.org/1999/xlink" version="1.1" id="Layer_1" x="0px" y="0px" viewBox="0 0 511 511" style="enable-background:new 0 0 511 511;" xml:space="preserve" width="512" height="512">
<g>
	<g>
		<g>
			<g>
				<rect x="201.073" y="410.667" style="fill:#AFBBD0;" width="108.854" height="69.972"/>
			</g>
		</g>
		<g>
			<g>
				<rect x="201.073" y="410.667" style="fill:#95A5B9;" width="108.854" height="18.833"/>
			</g>
		</g>
		<g>
			<g>
				<path style="fill:#5B5C6C;" d="M494.764,343H16.236V49.274C16.236,26.203,34.939,7.5,58.01,7.5h394.98      c23.071,0,41.774,18.703,41.774,41.774V343z"/>
			</g>
		</g>
		<g>
			<g>
				<path style="fill:#464655;" d="M452.99,7.5h-70.745c23.071,0,41.774,18.703,41.774,41.774V343h70.745V49.274      C494.763,26.203,476.061,7.5,452.99,7.5z"/>
			</g>
		</g>
		<g>
			<g>
				<path style="fill:#BEC8DC;" d="M16.236,343h478.527v27.965c0,23.071-18.703,41.774-41.774,41.774H58.01      c-23.071,0-41.774-18.703-41.774-41.774V343z"/>
			</g>
		</g>
		<g>
			<g>
				<path style="fill:#AFBBD0;" d="M423.98,343v27.965c0,23.071-18.703,41.774-41.774,41.774h70.784      c23.071,0,41.774-18.703,41.774-41.774V343H423.98z"/>
			</g>
		</g>
		<g>
			<g>
				<path style="fill:#01C8F0;" d="M463,309H48V51.69C48,45.234,53.234,40,59.69,40h391.62c6.456,0,11.69,5.234,11.69,11.69V309z"/>
			</g>
		</g>
		<g>
			<g>
				<path style="fill:#B9EBFF;" d="M463,51.69V309H48V51.69C48,45.23,53.23,40,59.69,40h391.62C457.77,40,463,45.23,463,51.69z"/>
			</g>
		</g>
		<g>
			<g>
				<path style="fill:#80C0FF;" d="M463,51.69V94H48V51.69C48,45.23,53.23,40,59.69,40h391.62C457.77,40,463,45.23,463,51.69z"/>
			</g>
		</g>
		<g>
			<g>
				<path style="fill:#A0DCF0;" d="M463,51.69V309h-38.98V49.27c0-3.19-0.36-6.29-1.04-9.27h28.33C457.77,40,463,45.23,463,51.69z"/>
			</g>
		</g>
		<g>
			<g>
				<path style="fill:#54A1FF;" d="M463,51.69V94h-38.98V49.27c0-3.19-0.36-6.29-1.04-9.27h28.33C457.77,40,463,45.23,463,51.69z"/>
			</g>
		</g>
	</g>
	<g>
		<path d="M452.99,0H58.01C30.84,0,8.736,22.104,8.736,49.274V343v27.965c0,27.17,22.104,49.274,49.274,49.274h58.49    c4.142,0,7.5-3.358,7.5-7.5s-3.358-7.5-7.5-7.5H58.01c-18.899,0-34.274-15.375-34.274-34.274V350.5H410.5    c4.142,0,7.5-3.358,7.5-7.5s-3.358-7.5-7.5-7.5H23.736V49.274C23.736,30.375,39.111,15,58.01,15H452.99    c18.899,0,34.274,15.375,34.274,34.274V335.5H442.99c-4.142,0-7.5,3.358-7.5,7.5s3.358,7.5,7.5,7.5h44.274v20.465    c0,18.899-15.375,34.274-34.274,34.274H309.927H201.073h-53.844c-4.142,0-7.5,3.358-7.5,7.5s3.358,7.5,7.5,7.5h46.344v52.899    h-15.982c-16.742,0-30.362,13.62-30.362,30.362c0,4.142,3.358,7.5,7.5,7.5s7.5-3.358,7.5-7.5c0-8.471,6.891-15.362,15.362-15.362    h23.482h108.854h23.482c8.471,0,15.362,6.891,15.362,15.362c0,4.142,3.358,7.5,7.5,7.5s7.5-3.358,7.5-7.5    c0-16.742-13.62-30.362-30.362-30.362h-15.982v-52.899H452.99c27.17,0,49.274-22.104,49.274-49.274V343V49.274    C502.264,22.104,480.16,0,452.99,0z M302.427,473.138h-93.854v-52.899h93.854V473.138z"/>
		<path d="M470.5,309V51.69c0-10.582-8.608-19.19-19.19-19.19H59.69c-10.582,0-19.19,8.608-19.19,19.19V309    c0,4.142,3.358,7.5,7.5,7.5h415C467.142,316.5,470.5,313.142,470.5,309z M55.5,301.5v-200h23.667c4.142,0,7.5-3.358,7.5-7.5    s-3.358-7.5-7.5-7.5H55.5V51.69c0-2.311,1.879-4.19,4.19-4.19h391.62c2.311,0,4.19,1.879,4.19,4.19V86.5h-344    c-4.142,0-7.5,3.358-7.5,7.5s3.358,7.5,7.5,7.5h344v200H55.5z"/>
		<circle cx="77" cy="68" r="7.5"/>
		<circle cx="104" cy="68" r="7.5"/>
		<circle cx="131" cy="68" r="7.5"/>
		<path d="M179.45,210.352c2.884,2.886,7.725,2.886,10.609,0l16.006-16.006c2.929-2.929,2.929-7.678,0-10.606    c-2.929-2.929-7.678-2.929-10.606,0l-3.204,3.204v-21.233c0-5.276,4.292-9.569,9.569-9.569h21.878    c5.276,0,9.569,4.293,9.569,9.569c0,4.142,3.358,7.5,7.5,7.5s7.5-3.358,7.5-7.5c0-13.547-11.021-24.569-24.569-24.569h-21.878    c-13.547,0-24.569,11.022-24.569,24.569v21.233l-3.204-3.204c-2.929-2.929-7.678-2.929-10.606,0    c-2.929,2.929-2.929,7.678,0,10.606L179.45,210.352z"/>
		<path d="M246.075,183.996c-2.886-2.888-7.723-2.888-10.609,0l-16.006,16.006c-2.929,2.929-2.929,7.678,0,10.606    c2.929,2.929,7.678,2.929,10.606,0l3.204-3.204v19.937c0,5.276-4.292,9.569-9.569,9.569h-21.878c-5.276,0-9.569-4.292-9.569-9.569    c0-4.142-3.358-7.5-7.5-7.5s-7.5,3.358-7.5,7.5c0,13.547,11.021,24.569,24.569,24.569h21.878    c13.547,0,24.569-11.021,24.569-24.569v-19.937l3.204,3.204c1.464,1.464,3.384,2.197,5.303,2.197s3.839-0.732,5.303-2.197    c2.929-2.929,2.929-7.678,0-10.606L246.075,183.996z"/>
		<path d="M143.411,163.688c-0.448-1.569-1.569-2.782-3.361-3.642c-1.793-0.858-3.81-1.289-6.051-1.289s-4.241,0.387-5.995,1.161    c-1.756,0.774-2.857,1.868-3.306,3.281l-21.649,70.478c-0.149,0.639-0.224,1.039-0.224,1.198c0,1.837,1.11,3.374,3.33,4.612    s4.552,1.856,6.993,1.856c3.113,0,4.963-0.968,5.554-2.905l4.176-14.912h24.008l4.258,14.903c0.522,1.943,2.166,2.914,4.931,2.914    c2.09,0,4.146-0.597,6.163-1.793c2.017-1.194,3.025-2.614,3.025-4.258c0-0.148-0.075-0.521-0.224-1.12L143.411,163.688z     M126.078,212.097l9.628-34.401l9.749,34.401H126.078z"/>
		<path d="M315.072,163.688c-0.448-1.569-1.569-2.782-3.361-3.642c-1.793-0.858-3.81-1.289-6.051-1.289s-4.241,0.387-5.995,1.161    c-1.756,0.774-2.857,1.868-3.306,3.281l-21.649,70.478c-0.149,0.639-0.224,1.039-0.224,1.198c0,1.837,1.11,3.374,3.33,4.612    s4.552,1.856,6.993,1.856c3.113,0,4.963-0.968,5.554-2.905l4.176-14.912h24.008l4.258,14.903c0.522,1.943,2.166,2.914,4.931,2.914    c2.09,0,4.146-0.597,6.163-1.793c2.017-1.194,3.025-2.614,3.025-4.258c0-0.148-0.075-0.521-0.224-1.12L315.072,163.688z     M297.738,212.097l9.628-34.401l9.749,34.401H297.738z"/>
		<path d="M380.763,200.331l18.713-31.488c0.672-1.121,1.008-2.166,1.008-3.138c0-1.867-0.991-3.474-2.969-4.818    c-1.98-1.345-4.09-2.017-6.332-2.017c-2.092,0-3.736,1.047-4.93,3.138l-15.24,27.454l-15.24-27.454    c-1.121-2.091-2.728-3.138-4.818-3.138c-2.241,0-4.353,0.672-6.332,2.017c-1.98,1.345-2.969,2.952-2.969,4.818    c0,0.972,0.336,2.017,1.008,3.138l18.713,31.488l-19.386,31.6c-0.599,1.047-0.896,1.943-0.896,2.689    c0,1.944,1.065,3.642,3.194,5.099c2.129,1.457,4.239,2.185,6.331,2.185c1.793,0,3.138-0.784,4.034-2.353l16.36-28.798    l16.472,28.798c0.821,1.569,2.129,2.353,3.922,2.353c2.166,0,4.295-0.728,6.387-2.185c2.091-1.457,3.138-3.155,3.138-5.099    c0-0.821-0.263-1.717-0.784-2.689L380.763,200.331z"/>
	</g>
</g>















</svg>
