<svg id="Capa_1" enable-background="new 0 0 512 512" height="512" viewBox="0 0 512 512" width="512" xmlns="http://www.w3.org/2000/svg"><g clip-rule="evenodd" fill="#00758f" fill-rule="evenodd"><path d="m116.411 90.81c-5.907 0-10.071.709-14.277 1.748v.701h.683c2.812 5.559 7.687 9.413 11.146 14.285 2.805 5.573 5.239 11.124 8.021 16.697.349-.338.683-.701.683-.701 4.905-3.466 7.339-9.039 7.339-17.41-2.1-2.449-2.435-4.868-4.185-7.313-2.086-3.476-6.62-5.217-9.41-8.007"/><path d="m471.608 393.435c-27.872-.698-49.452 2.085-67.559 9.751-5.225 2.086-13.566 2.086-14.285 8.705 2.804 2.783 3.138 7.302 5.595 11.153 4.171 6.961 11.466 16.348 18.099 21.239 7.31 5.573 14.627 11.124 22.299 16 13.566 8.392 28.897 13.245 42.107 21.609 7.687 4.868 15.324 11.131 23.012 16.369 3.815 2.784 6.234 7.317 11.124 9.039v-1.053c-2.449-3.124-3.139-7.651-5.559-11.153-3.481-3.459-6.968-6.612-10.456-10.078-10.107-13.58-22.655-25.409-36.206-35.16-11.153-7.68-35.545-18.129-40.05-30.975 0 0-.363-.37-.705-.712 7.658-.705 16.733-3.495 24.036-5.609 11.821-3.124 22.619-2.42 34.804-5.544 5.58-1.403 11.153-3.154 16.748-4.868v-3.153c-6.3-6.257-10.805-14.627-17.424-20.541-17.744-15.317-37.267-30.277-57.46-42.833-10.812-6.968-24.741-11.473-36.235-17.41-4.156-2.092-11.117-3.124-13.565-6.626-6.271-7.658-9.765-17.744-14.285-26.811-10.085-19.132-19.858-40.363-28.548-60.595-6.263-13.573-10.1-27.142-17.758-39.686-35.886-59.211-74.876-95.058-134.77-130.236-12.89-7.328-28.206-10.456-44.562-14.285-8.719-.367-17.417-1.042-26.122-1.384-5.58-2.449-11.161-9.071-16.029-12.203-19.856-12.532-71.024-39.689-85.658-3.828-9.402 22.648 13.929 44.926 21.943 56.42 5.915 8 13.588 17.068 17.744 26.11 2.441 5.922 3.139 12.199 5.588 18.459 5.565 15.32 10.783 32.389 18.107 46.674 3.822 7.313 7.992 14.986 12.868 21.569 2.812 3.855 7.673 5.573 8.719 11.862-4.861 6.953-5.239 17.401-8.021 26.113-12.527 39.353-7.658 88.104 10.107 117.001 5.559 8.704 18.805 27.865 36.57 20.534 15.665-6.256 12.185-26.107 16.712-43.509 1.039-4.207.341-6.968 2.426-9.75v.705c4.868 9.736 9.758 19.117 14.285 28.897 10.805 17.046 29.595 34.811 45.282 46.641 8.334 6.292 14.953 17.067 25.401 20.911v-1.053h-.69c-2.093-3.124-5.217-4.527-8.007-6.954-6.271-6.27-13.217-13.936-18.114-20.897-14.619-19.494-27.523-41.096-38.989-63.381-5.588-10.819-10.448-22.648-14.983-33.439-2.085-4.156-2.085-10.445-5.573-12.527-5.239 7.652-12.876 14.278-16.704 23.652-6.62 14.989-7.309 33.445-9.765 52.606-1.388.363-.691 0-1.388.69-11.132-2.783-14.961-14.27-19.154-23.992-10.441-24.755-12.199-64.453-3.132-93.008 2.427-7.298 12.905-30.281 8.705-37.245-2.1-6.645-9.061-10.437-12.883-15.684-4.519-6.616-9.424-14.957-12.527-22.285-8.363-19.495-12.562-41.093-21.587-60.588-4.185-9.068-11.509-18.474-17.41-26.815-6.634-9.406-13.936-16.018-19.168-27.149-1.729-3.841-4.17-10.111-1.395-14.278.691-2.79 2.101-3.84 4.891-4.544 4.504-3.826 17.402 1.039 21.922 3.131 12.89 5.206 23.687 10.111 34.47 17.409 4.882 3.492 10.107 10.103 16.363 11.862h7.324c11.138 2.416 23.687.675 34.142 3.821 18.441 5.915 35.153 14.623 50.135 24.025 45.601 28.908 83.218 70.008 108.626 119.101 4.185 7.996 5.944 15.317 9.765 23.657 7.317 17.101 16.378 34.51 23.673 51.208 7.309 16.37 14.292 33.067 24.747 46.669 5.21 7.303 26.114 11.132 35.517 14.968 6.946 3.125 17.758 5.915 24.029 9.737 11.844 7.303 23.658 15.673 34.819 23.695 5.559 4.176 22.976 12.874 24.022 19.849"/></g></svg>