<svg id="Layer_1" height="512" viewBox="0 0 100 100" width="512" xmlns="http://www.w3.org/2000/svg"><path d="m76.665 36.672c-1.152 0-2.266-.162-3.332-.438v7.1c0 1.842-1.496 3.334-3.333 3.334h-33.333c-3.771 0-7.207 1.299-10 3.412l-.001 13.253c0-5.52 4.479-9.998 10-9.998h33.334c5.521 0 10-4.477 10-10.001v-7.1c-1.067.277-2.182.438-3.335.438z" fill="#2cabe1"/><path d="m30.666 55.35v-7.516c-1.437.572-2.782 1.326-3.999 2.247l-.001 13.253c0-3.267 1.576-6.159 4-7.984z" fill="#0077bd"/><path d="m23.333 36.669c-1.153 0-2.267-.162-3.334-.438v27.543c1.067-.274 2.181-.436 3.334-.436s2.266.161 3.333.436v-27.543c-1.066.276-2.18.438-3.333.438z" fill="#ffc00e"/><path d="m20 36.231v4.113c1.08.211 2.194.325 3.334.325 1.141 0 2.254-.114 3.333-.325v-4.113c-1.067.276-2.181.438-3.333.438-1.154 0-2.267-.162-3.334-.438z" fill="#f68e1e"/><path d="m73.333 36.231v4.113c1.079.211 2.193.325 3.334.325 1.139 0 2.253-.114 3.333-.325v-4.113c-1.067.276-2.18.438-3.333.438s-2.268-.162-3.334-.438z" fill="#0077bd"/><circle cx="76.665" cy="23.336" fill="#f1f7e9" r="6.667"/><path d="m76.665 10c-7.363 0-13.332 5.97-13.332 13.334 0 7.366 5.969 13.338 13.332 13.338 7.369 0 13.335-5.972 13.335-13.338 0-7.364-5.966-13.334-13.335-13.334zm0 20.003c-3.681 0-6.665-2.985-6.665-6.668 0-3.681 2.984-6.666 6.665-6.666 3.685 0 6.668 2.984 6.668 6.666 0 3.683-2.983 6.668-6.668 6.668z" fill="#7cb342"/><path d="m23.333 70.003c-3.682 0-6.667 2.984-6.667 6.666 0 3.686 2.985 6.667 6.667 6.667s6.666-2.981 6.666-6.667c.001-3.682-2.984-6.666-6.666-6.666z" fill="#fceaed"/><path d="m23.333 63.339c-7.363 0-13.333 5.967-13.333 13.33 0 7.371 5.97 13.331 13.333 13.331s13.332-5.96 13.332-13.331c0-7.363-5.969-13.33-13.332-13.33zm0 19.997c-3.682 0-6.667-2.981-6.667-6.667 0-3.682 2.985-6.666 6.667-6.666s6.666 2.984 6.666 6.666c.001 3.685-2.984 6.667-6.666 6.667z" fill="#e53a34"/><circle cx="23.333" cy="23.335" fill="#f1f7e9" r="6.667"/><path d="m23.333 10.003c-7.363 0-13.333 5.969-13.333 13.331 0 7.365 5.97 13.335 13.333 13.335s13.333-5.973 13.333-13.335c0-7.36-5.97-13.331-13.333-13.331zm0 20c-3.682 0-6.667-2.985-6.667-6.668 0-3.681 2.985-6.666 6.667-6.666s6.666 2.985 6.666 6.666c.001 3.682-2.984 6.668-6.666 6.668z" fill="#7cb342"/><path d="m19.494 79.498c0-3.681 2.98-6.667 6.667-6.665 1.112 0 2.158.274 3.079.756-1.113-2.13-3.338-3.586-5.907-3.586-3.687 0-6.667 2.986-6.667 6.667 0 2.57 1.454 4.799 3.585 5.911-.481-.924-.757-1.971-.757-3.083z" fill="#f9ccd2"/><g fill="#dbebc7"><path d="m19.494 26.165c0-3.682 2.98-6.667 6.667-6.667 1.112 0 2.158.276 3.079.757-1.113-2.13-3.338-3.586-5.907-3.586-3.687 0-6.667 2.985-6.667 6.667 0 2.57 1.454 4.798 3.585 5.91-.481-.922-.757-1.969-.757-3.081z"/><path d="m72.828 26.165c0-3.682 2.981-6.667 6.667-6.667 1.111 0 2.158.276 3.078.757-1.112-2.13-3.338-3.586-5.906-3.586-3.688 0-6.667 2.985-6.667 6.667 0 2.57 1.454 4.798 3.586 5.91-.482-.922-.758-1.969-.758-3.081z"/></g></svg>